<?xml version="1.0" encoding="UTF-8"?>
<svg xmlns="http://www.w3.org/2000/svg" xmlns:xlink="http://www.w3.org/1999/xlink" width="1024px" height="346px" viewBox="0 0 1024 346" version="1.1">
<g id="surface1">
<path style=" stroke:none;fill-rule:nonzero;fill:rgb(100%,100%,100%);fill-opacity:1;" d="M 400.449219 291 L 431.304688 291 L 431.304688 193.988281 C 431.304688 166.839844 430.773438 137.960938 428.644531 99.371094 L 432.101562 99.371094 L 437.820312 123.058594 L 474.257812 291 L 505.644531 291 L 541.417969 123.058594 L 547.667969 99.371094 L 550.859375 99.371094 C 549.261719 133.570312 548.332031 164.445312 548.332031 193.988281 L 548.332031 291 L 579.316406 291 L 579.316406 67.433594 L 526.65625 67.433594 L 507.769531 150.070312 C 499.792969 184.40625 494.074219 226.992188 490.75 248.683594 L 488.222656 248.683594 C 485.828125 226.589844 479.84375 184.140625 471.996094 150.339844 L 452.582031 67.433594 L 400.449219 67.433594 Z M 400.449219 291 "/>
<path style=" stroke:none;fill-rule:nonzero;fill:rgb(100%,100%,100%);fill-opacity:1;" d="M 641.023438 293.527344 C 660.441406 293.527344 672.542969 285.410156 682.515625 270.773438 L 683.980469 270.773438 L 685.441406 291 L 711.90625 291 L 711.90625 126.519531 L 676.796875 126.519531 L 676.796875 258.664062 C 673.074219 265.183594 664.429688 269.972656 656.316406 269.972656 C 646.078125 269.972656 642.886719 261.855469 642.886719 248.28125 L 642.886719 126.519531 L 607.910156 126.519531 L 607.910156 249.878906 C 607.910156 276.628906 615.625 293.527344 641.023438 293.527344 Z M 641.023438 293.527344 "/>
<path style=" stroke:none;fill-rule:nonzero;fill:rgb(100%,100%,100%);fill-opacity:1;" d="M 781.347656 294.460938 C 813.53125 294.460938 831.484375 280.222656 831.484375 251.078125 C 831.484375 224.59375 818.183594 213.816406 786.53125 192.257812 C 772.039062 182.675781 764.191406 176.6875 764.191406 162.582031 C 764.191406 152.066406 770.707031 146.480469 782.542969 146.480469 C 795.441406 146.480469 799.832031 154.996094 800.363281 179.214844 L 829.089844 177.617188 C 831.484375 139.691406 817.917969 123.457031 783.074219 123.457031 C 750.09375 123.457031 734.269531 137.695312 734.269531 165.910156 C 734.269531 191.992188 746.636719 203.835938 769.910156 220.070312 C 790.523438 234.308594 801.828125 243.226562 801.828125 255.070312 C 801.828125 264.785156 795.042969 271.835938 783.207031 271.835938 C 769.644531 271.835938 761.929688 260.125 763.261719 242.425781 L 734.136719 242.960938 C 729.613281 277.027344 745.574219 294.460938 781.347656 294.460938 Z M 781.347656 294.460938 "/>
<path style=" stroke:none;fill-rule:nonzero;fill:rgb(100%,100%,100%);fill-opacity:1;" d="M 869.5625 105.625 C 881.53125 105.625 887.117188 101.632812 887.117188 85.132812 C 887.117188 69.695312 881.132812 64.902344 869.5625 64.902344 C 857.859375 64.902344 852.140625 69.160156 852.140625 85.132812 C 852.140625 101.632812 857.59375 105.625 869.5625 105.625 Z M 853.335938 291 L 886.984375 291 L 886.984375 126.519531 L 853.335938 126.519531 Z M 853.335938 291 "/>
<path style=" stroke:none;fill-rule:nonzero;fill:rgb(100%,100%,100%);fill-opacity:1;" d="M 962.066406 293.664062 C 978.820312 293.664062 988.265625 291.667969 995.84375 284.480469 C 1007.148438 274.632812 1011.800781 259.328125 1011.003906 233.511719 L 980.285156 231.914062 C 980.285156 260.125 975.761719 270.773438 962.597656 270.773438 C 948.101562 270.773438 945.707031 254.9375 945.707031 226.191406 L 945.707031 192.125 C 945.707031 160.71875 948.765625 145.8125 962.863281 145.8125 C 974.566406 145.8125 979.21875 155.660156 979.21875 187.066406 L 1009.675781 184.9375 C 1011.800781 162.449219 1009.542969 144.082031 998.902344 133.835938 C 990.921875 126.386719 979.085938 123.457031 963.394531 123.457031 C 923.101562 123.457031 910.597656 149.007812 910.597656 197.582031 L 910.597656 220.070312 C 910.597656 268.644531 920.042969 293.664062 962.066406 293.664062 Z M 962.066406 293.664062 "/>
<path style=" stroke:none;fill-rule:nonzero;fill:rgb(100%,0%,20%);fill-opacity:1;" d="M 172.882812 346 C 268.316406 346 345.765625 268.496094 345.765625 173 C 345.765625 77.503906 268.316406 0 172.882812 0 C 77.453125 0 0 77.503906 0 173 C 0 268.496094 77.453125 346 172.882812 346 Z M 172.882812 346 "/>
<path style="fill:none;stroke-width:1;stroke-linecap:butt;stroke-linejoin:miter;stroke:rgb(100%,100%,100%);stroke-opacity:1;stroke-miterlimit:4;" d="M 20.500122 13 C 20.500122 17.143809 17.143944 20.500068 12.999977 20.500068 C 8.85601 20.500068 5.500126 17.143809 5.500126 13 C 5.500126 8.856191 8.85601 5.499932 12.999977 5.499932 C 17.143944 5.499932 20.500122 8.856191 20.500122 13 Z M 20.500122 13 " transform="matrix(13.298701,0,0,13.307692,0,0)"/>
<path style=" stroke:none;fill-rule:nonzero;fill:rgb(100%,100%,100%);fill-opacity:1;" d="M 236.050781 173 L 136.3125 116.441406 L 136.3125 229.558594 Z M 236.050781 173 "/>
</g>
</svg>
